%TF.GenerationSoftware,KiCad,Pcbnew,(7.0.0)*%
%TF.CreationDate,2023-04-30T12:38:50+09:00*%
%TF.ProjectId,RES_project,5245535f-7072-46f6-9a65-63742e6b6963,rev?*%
%TF.SameCoordinates,Original*%
%TF.FileFunction,Soldermask,Top*%
%TF.FilePolarity,Negative*%
%FSLAX46Y46*%
G04 Gerber Fmt 4.6, Leading zero omitted, Abs format (unit mm)*
G04 Created by KiCad (PCBNEW (7.0.0)) date 2023-04-30 12:38:50*
%MOMM*%
%LPD*%
G01*
G04 APERTURE LIST*
G04 Aperture macros list*
%AMRoundRect*
0 Rectangle with rounded corners*
0 $1 Rounding radius*
0 $2 $3 $4 $5 $6 $7 $8 $9 X,Y pos of 4 corners*
0 Add a 4 corners polygon primitive as box body*
4,1,4,$2,$3,$4,$5,$6,$7,$8,$9,$2,$3,0*
0 Add four circle primitives for the rounded corners*
1,1,$1+$1,$2,$3*
1,1,$1+$1,$4,$5*
1,1,$1+$1,$6,$7*
1,1,$1+$1,$8,$9*
0 Add four rect primitives between the rounded corners*
20,1,$1+$1,$2,$3,$4,$5,0*
20,1,$1+$1,$4,$5,$6,$7,0*
20,1,$1+$1,$6,$7,$8,$9,0*
20,1,$1+$1,$8,$9,$2,$3,0*%
G04 Aperture macros list end*
%ADD10R,1.524000X2.286000*%
%ADD11R,1.700000X1.700000*%
%ADD12O,1.700000X1.700000*%
%ADD13C,4.400000*%
%ADD14R,0.740000X2.400000*%
%ADD15RoundRect,0.218750X-0.218750X-0.256250X0.218750X-0.256250X0.218750X0.256250X-0.218750X0.256250X0*%
%ADD16R,1.600000X1.600000*%
%ADD17O,1.600000X1.600000*%
%ADD18RoundRect,0.200000X-0.200000X-0.275000X0.200000X-0.275000X0.200000X0.275000X-0.200000X0.275000X0*%
G04 APERTURE END LIST*
D10*
%TO.C,SW2*%
X70999999Y-36908499D03*
X74999999Y-36908499D03*
X78999999Y-36908499D03*
%TD*%
D11*
%TO.C,JP2*%
X73999999Y-88199999D03*
D12*
X76539999Y-88199999D03*
%TD*%
D13*
%TO.C,U1*%
X81900000Y-45240000D03*
X68000000Y-79140000D03*
X54100000Y-45240000D03*
D14*
X60379999Y-47189999D03*
X60379999Y-43289999D03*
X61649999Y-47189999D03*
X61649999Y-43289999D03*
X62919999Y-47189999D03*
X62919999Y-43289999D03*
X64189999Y-47189999D03*
X64189999Y-43289999D03*
X65459999Y-47189999D03*
X65459999Y-43289999D03*
X66729999Y-47189999D03*
X66729999Y-43289999D03*
X67999999Y-47189999D03*
X67999999Y-43289999D03*
X69269999Y-47189999D03*
X69269999Y-43289999D03*
X70539999Y-47189999D03*
X70539999Y-43289999D03*
X71809999Y-47189999D03*
X71809999Y-43289999D03*
X73079999Y-47189999D03*
X73079999Y-43289999D03*
X74349999Y-47189999D03*
X74349999Y-43289999D03*
X75619999Y-47189999D03*
X75619999Y-43289999D03*
%TD*%
D15*
%TO.C,D1*%
X54225000Y-33360000D03*
X55800000Y-33360000D03*
%TD*%
D16*
%TO.C,A1*%
X48599999Y-82379999D03*
D17*
X48599999Y-79839999D03*
X48599999Y-77299999D03*
X48599999Y-74759999D03*
X48599999Y-72219999D03*
X48599999Y-69679999D03*
X48599999Y-67139999D03*
X48599999Y-64599999D03*
X48599999Y-62059999D03*
X48599999Y-59519999D03*
X48599999Y-56979999D03*
X48599999Y-54439999D03*
X48599999Y-51899999D03*
X48599999Y-49359999D03*
X48599999Y-46819999D03*
X33359999Y-46819999D03*
X33359999Y-49359999D03*
X33359999Y-51899999D03*
X33359999Y-54439999D03*
X33359999Y-56979999D03*
X33359999Y-59519999D03*
X33359999Y-62059999D03*
X33359999Y-64599999D03*
X33359999Y-67139999D03*
X33359999Y-69679999D03*
X33359999Y-72219999D03*
X33359999Y-74759999D03*
X33359999Y-77299999D03*
X33359999Y-79839999D03*
X33359999Y-82379999D03*
%TD*%
D18*
%TO.C,R1*%
X58197500Y-33320000D03*
X59847500Y-33320000D03*
%TD*%
D11*
%TO.C,JP1*%
X59799999Y-88199999D03*
D12*
X62339999Y-88199999D03*
%TD*%
M02*
