M48
; DRILL file {KiCad (7.0.0)} date Sun Apr 30 12:38:53 2023
; FORMAT={-:-/ absolute / inch / decimal}
; #@! TF.CreationDate,2023-04-30T12:38:53+09:00
; #@! TF.GenerationSoftware,Kicad,Pcbnew,(7.0.0)
; #@! TF.FileFunction,Plated,1,2,PTH
FMAT,2
INCH
; #@! TA.AperFunction,Plated,PTH,ViaDrill
T1C0.0157
; #@! TA.AperFunction,Plated,PTH,ComponentDrill
T2C0.0394
; #@! TA.AperFunction,Plated,PTH,ComponentDrill
T3C0.0866
%
G90
G05
T1
X2.3071Y-2.2598
X2.9272Y-1.9881
X3.0138Y-2.7185
T2
X1.3134Y-1.8433
X1.3134Y-1.9433
X1.3134Y-2.0433
X1.3134Y-2.1433
X1.3134Y-2.2433
X1.3134Y-2.3433
X1.3134Y-2.4433
X1.3134Y-2.5433
X1.3134Y-2.6433
X1.3134Y-2.7433
X1.3134Y-2.8433
X1.3134Y-2.9433
X1.3134Y-3.0433
X1.3134Y-3.1433
X1.3134Y-3.2433
X1.9134Y-1.8433
X1.9134Y-1.9433
X1.9134Y-2.0433
X1.9134Y-2.1433
X1.9134Y-2.2433
X1.9134Y-2.3433
X1.9134Y-2.4433
X1.9134Y-2.5433
X1.9134Y-2.6433
X1.9134Y-2.7433
X1.9134Y-2.8433
X1.9134Y-2.9433
X1.9134Y-3.0433
X1.9134Y-3.1433
X1.9134Y-3.2433
X2.3543Y-3.4724
X2.4543Y-3.4724
X2.9134Y-3.4724
X3.0134Y-3.4724
T3
X2.1299Y-1.7811
X2.6772Y-3.1157
X3.2244Y-1.7811
T0
M30
